<svg xmlns="http://www.w3.org/2000/svg" xml:space="preserve" width="175mm" height="175mm" viewBox="0 0 175 175">
  <path d="M21.272 197.575c-2.715-1.773-2.537 4.318-2.473-84.78.05-69.088.15-81.683.655-82.304 1.694-2.082-2.52-1.983 84.548-1.983h81.58l1.595 1.579 1.594 1.578-.11 81.946-.11 81.945-1.675 1.476-1.675 1.475-81.261-.006-81.262-.006zm51.21-20.851V164.53l1.177-.62c.647-.341 2.667-1.711 4.488-3.044l3.313-2.423v30.475h42.75v-45.333h-9.552c-12.414 0-12.648-.145-7.488-4.613 1.915-1.659 3.73-3.26 4.032-3.56.388-.385 2.364-.545 6.728-.545h6.177l.179-5.456.178-5.456 2.844-2.935c1.564-1.615 3.424-3.573 4.134-4.352.71-.78 1.393-1.417 1.518-1.417.126 0 .228 4.414.228 9.808v9.808H179.787v-43.59h-11.192l.236-2.506c.13-1.379.358-3.438.508-4.577l.273-2.07h10.175V38.097H133.188V57.17l-2.76.707c-3.774.967-3.751.974-4.81-1.379-.848-1.885-.946-2.87-1.019-10.243l-.08-8.158H81.46V82.123h17.902c23.018 0 21.744-.454 18.953 6.757l-.844 2.18-18.005.113-18.006.113v34.387l-1.39.213c-.764.118-2.784.383-4.488.59l-3.1.376V91.277h-44.46v43.608l28.357-.119 28.358-.118 3.78-3.269c14.077-12.172 29.159-27.691 48.284-49.683l2.836-3.261-1.143-.88c-.628-.484-2.993-1.986-5.255-3.338-4.271-2.553-4.723-3.14-3.924-5.107.568-1.4 4.72-3.15 7.787-3.283.624-.027 1.063-.168.975-.313-.088-.145 1.229-.712 2.926-1.26a418.118 418.118 0 0 0 6.507-2.175c9.712-3.349 10.757-3.592 12.183-2.84 1.225.645 2.377 2.522 1.966 3.2-.098.163-.3 3.138-.45 6.612-.148 3.474-.446 7.493-.662 8.931-.216 1.439-.512 4.577-.658 6.975-.146 2.397-.33 5.33-.409 6.517-.201 3.036-2.474 4.442-4.087 2.527-5.923-7.032-8.09-9.073-8.1-7.628 0 .18-.626 1.025-1.389 1.877a404.52 404.52 0 0 0-4.38 5.048c-11.656 13.629-21.658 23.95-31.258 32.256-1.439 1.245-3.074 2.725-3.634 3.29-3.952 3.986-22.71 18.478-28.313 21.874a23.522 23.522 0 0 0-2.58 1.876c-.682.584-1.51.956-1.843.826-.332-.13-.497-.06-.367.153.48.792-23.886 14.422-25.78 14.422-.255 0-1.14.387-1.969.861-2.368 1.357-4.494.674-5.044-1.62-.355-1.477.91-2.765 5.328-5.429 32.037-19.31 31.88-18.206 2.585-18.216l-20.627-.006v45.333h44.46zm107.304-10.473v-22.666h-46.598v45.333h46.598zM72.482 60.111V38.098h-44.46V82.123h44.46z" style="fill:#00f;stroke-width:2.85779" transform="translate(-16.27 -26.007)"/>
</svg>
