<svg xmlns="http://www.w3.org/2000/svg" width="1024" height="1024" style="shape-rendering:geometricPrecision;text-rendering:geometricPrecision;image-rendering:optimizeQuality;fill-rule:evenodd;clip-rule:evenodd">
  
  <path fill="#211e3d" d="M838.5 104.5c1.951-.273 3.451.393 4.5 2a121.661 121.661 0 0 0 6 23 17.842 17.842 0 0 0 5.5 4.5 86.71 86.71 0 0 0 16 4c4 1.667 4 3.333 0 5-8.323.696-15.489 3.863-21.5 9.5a113.393 113.393 0 0 0-7 24c-1 1.333-2 1.333-3 0a194.244 194.244 0 0 0-6-23 34.706 34.706 0 0 0-7.5-6.5c-25.333-4.333-25.333-8.667 0-13 4.103-2.045 6.936-5.212 8.5-9.5a1621.07 1621.07 0 0 0 4.5-20Z" style="opacity:1" data-index="1"></path>
  
  <path fill="#4e4279" d="M740.5 187.5c.011 1.517.677 2.684 2 3.5 92.505 77.197 138.505 176.364 138 297.5a556.647 556.647 0 0 0-31-9.5c-27.538-6.589-54.871-5.922-82 2-21.549 7.874-33.383 23.374-35.5 46.5-7.257 24.051-22.424 40.884-45.5 50.5-9.996 4.084-20.33 6.417-31 7-4.55-5.38-9.884-9.88-16-13.5 53.137-24.971 91.637-64.304 115.5-118 12.509-2.92 22.509-9.587 30-20 12.471-20.382 18.304-42.548 17.5-66.5 1.592-18.128-2.241-34.961-11.5-50.5a79.863 79.863 0 0 0-15-15c-6.091-37.621-19.258-72.454-39.5-104.5a145.487 145.487 0 0 1 4-9.5Z" style="opacity: 1;" data-index="3"></path>
  <path fill="#211e3d" d="M880.5 215.5c11.679-.82 17.179 4.514 16.5 16-6.82 9.782-14.487 10.449-23 2-3.133-8.045-.966-14.045 6.5-18Z" style="opacity:1" data-index="4"></path>
  
  <path fill="#4e4279" d="M192.5 252.5c-21.557 59.263-23.724 119.263-6.5 180 18.782 57.11 53.616 101.61 104.5 133.5a1556.667 1556.667 0 0 0 47 24c-13.121 8.121-23.955 18.621-32.5 31.5l-11 17-1 11a682.95 682.95 0 0 0-16 31c-13.93 3.603-21.93 12.603-24 27l-1 15c-7.608 10.684-12.775 22.35-15.5 35-9.487-10.994-19.653-21.661-30.5-32-75.159-89.59-104.159-192.59-87-309 10.752-61.145 35.252-115.811 73.5-164Z" style="opacity: 1;" data-index="6"></path>
  <path fill="#221f3d" d="M899.5 311.5c9.522 1.033 12.355 6.033 8.5 15-4.041 4.813-8.375 5.146-13 1-3.134-6.821-1.634-12.154 4.5-16Z" style="opacity:1" data-index="7"></path>
  
  <path fill="#685897" d="M829.5 404.5c12.175-.001 17.009 5.999 14.5 18-3.655 6.57-9.155 8.737-16.5 6.5-6.638-4.017-8.804-9.85-6.5-17.5 2.464-2.981 5.297-5.314 8.5-7Z" style="opacity:1" data-index="9"></path>
  <path fill="#1e1c3a" d="M167.5 493.5c1.624-.14 2.79.527 3.5 2 .485 15.479 8.319 24.313 23.5 26.5.457.414.791.914 1 1.5-6.725 1.958-12.892 4.958-18.5 9a234.628 234.628 0 0 0-7.5 20 112.861 112.861 0 0 0-7.5-21 728.91 728.91 0 0 0-17.5-9 112.39 112.39 0 0 1 14-5.5l3.5-3.5a222.47 222.47 0 0 0 5.5-20Z" style="opacity:1" data-index="10"></path>
  <path fill="#6a5a99" d="M220.5 571.5c11.16-1.674 15.66 2.992 13.5 14-2.919 5.525-7.419 7.358-13.5 5.5-4.992-3.157-6.825-7.657-5.5-13.5 1.36-2.523 3.193-4.523 5.5-6Z" style="opacity:1" data-index="11"></path>
  
  <path fill="#f8f8fa" d="M268.5 604.5c10.657-1.842 15.157 2.491 13.5 13-1.797 4.086-4.964 6.086-9.5 6-5.616-1.867-8.282-5.867-8-12 .077-3.165 1.41-5.499 4-7Z" style="opacity:1" data-index="13"></path>
  <path fill="#4d4178" d="M852.5 621.5c-17.578 44.186-42.911 83.186-76 117-7.42-.297-14.754.036-22 1 .289-3.606-.044-7.106-1-10.5a64.218 64.218 0 0 0-16 0 98.26 98.26 0 0 0-1 19.5h18v-3h14a259.555 259.555 0 0 1-37 29 25.14 25.14 0 0 0-4-4.5 347.134 347.134 0 0 0-15.5-8.5 38.307 38.307 0 0 0-3.5-11.5c5.034-14.144 6.2-28.644 3.5-43.5-1.786-5.452-4.786-10.118-9-14-4.38-18.644-11.213-36.311-20.5-53 28.944-13.182 53.944-8.015 75 15.5 6.397 2.891 11.564 1.391 15.5-4.5 17.97-32.715 44.47-42.381 79.5-29Z" style="opacity:1" data-index="14"></path>
  <path fill="#f9f9fa" d="M199.5 617.5c13.986.505 18.82 7.505 14.5 21-1.886 2.742-4.386 4.409-7.5 5v22c-2.292.256-4.459-.077-6.5-1a222.728 222.728 0 0 0-1.5-21c-8.276-4.822-10.11-11.489-5.5-20a53.864 53.864 0 0 1 6.5-6Z" style="opacity:1" data-index="15"></path>
  <path fill="#473b71" d="M201.5 624.5c6.956.892 8.789 4.559 5.5 11-5.127 3.023-8.293 1.523-9.5-4.5.705-2.542 2.039-4.708 4-6.5Z" style="opacity:1" data-index="16"></path>
  <path fill="#f7f7f9" d="M244.5 658.5c8.043.52 10.376 4.354 7 11.5-7.742 3.248-11.242.748-10.5-7.5.69-1.85 1.856-3.184 3.5-4Z" style="opacity:1" data-index="17"></path>
  <path fill="#faf9fb" d="M778.5 671.5c16.403.572 22.903 8.906 19.5 25-6.213 10.592-14.713 12.759-25.5 6.5-9.544-9.907-9.211-19.574 1-29a38.715 38.715 0 0 0 5-2.5Z" style="opacity:1" data-index="18"></path>
  <path fill="#493d74" d="M778.5 680.5c9.712-.791 13.545 3.542 11.5 13-2.226 4.361-5.726 5.861-10.5 4.5-4.621-2.077-6.455-5.577-5.5-10.5 1.012-2.702 2.512-5.035 4.5-7Z" style="opacity:1" data-index="19"></path>
  <path fill="#18162d" d="M768.5 745.5h-14v-6a127.773 127.773 0 0 1 22-1c9.672.166 19.339 0 29-.5a525.161 525.161 0 0 1 23-37c3.134-.79 6.134-.457 9 1a564.555 564.555 0 0 0 13 18.5 1928.419 1928.419 0 0 0 27.5-52c3.411-5.112 7.911-6.278 13.5-3.5a232.767 232.767 0 0 1 24.5 29.5 736.98 736.98 0 0 1 24.5-58 36.308 36.308 0 0 1-7-4c-.985-1.598-1.151-3.265-.5-5a545.974 545.974 0 0 0 19.5-10.5c3.088-.847 5.921-.347 8.5 1.5a89.344 89.344 0 0 1 3 28c-.956 1.394-2.289 2.061-4 2a27.194 27.194 0 0 1-7.5-4 5759.786 5759.786 0 0 0-24.5 57c-2.657 9.251-8.157 11.751-16.5 7.5a477.558 477.558 0 0 1-23.5-28.5 1032.478 1032.478 0 0 1-25 48c-1.738 3.741-4.238 6.908-7.5 9.5-3.707.996-7.041.33-10-2a85.684 85.684 0 0 1-13.5-17.5 206.465 206.465 0 0 1-17.5 29.5c-3.768 1.209-6.768.209-9-3a336.076 336.076 0 0 0-37 .5Z" style="opacity:1" data-index="20"></path>
  <path fill="#f7f6f9" d="M734.5 692.5c6.588.157 9.088 3.49 7.5 10-4.399 4.154-8.399 3.821-12-1-.623-4.088.877-7.088 4.5-9Z" style="opacity:1" data-index="21"></path>
  <path fill="#221e3c" d="M103.5 700.5c9.787-1.042 14.62 3.291 14.5 13-3.277 5.609-8.11 7.442-14.5 5.5-4.775-3.655-6.275-8.488-4.5-14.5 1.397-1.57 2.897-2.904 4.5-4Z" style="opacity:1" data-index="22"></path>
  <path fill="#f8dfb0" d="M754.5 739.5v9h-18a98.26 98.26 0 0 1 1-19.5 64.218 64.218 0 0 1 16 0c.956 3.394 1.289 6.894 1 10.5Z" style="opacity:1" data-index="23"></path>
  <path fill="#201d3b" d="M159.5 775.5c1.624-.14 2.79.527 3.5 2a122.46 122.46 0 0 0 5 19c5.244 5.532 11.744 8.365 19.5 8.5a7.293 7.293 0 0 1 3 2 73.893 73.893 0 0 1-16 6 17.842 17.842 0 0 0-5.5 4.5 163.638 163.638 0 0 0-7.5 22 3.647 3.647 0 0 1-1.5-1 91.159 91.159 0 0 0-7-22 11.532 11.532 0 0 0-4.5-3.5 249.034 249.034 0 0 0-15-4c-2.596-1.797-2.263-3.131 1-4l13-3a25.55 25.55 0 0 0 6.5-5.5 171.615 171.615 0 0 0 5.5-21Z" style="opacity:1" data-index="24"></path>
  <path fill="#181730" d="M740.5 187.5a145.487 145.487 0 0 0-4 9.5c20.242 32.046 33.409 66.879 39.5 104.5a79.863 79.863 0 0 1 15 15c9.259 15.539 13.092 32.372 11.5 50.5.804 23.952-5.029 46.118-17.5 66.5-7.491 10.413-17.491 17.08-30 20-23.863 53.696-62.363 93.029-115.5 118 6.116 3.62 11.45 8.12 16 13.5 10.67-.583 21.004-2.916 31-7 23.076-9.616 38.243-26.449 45.5-50.5 2.117-23.126 13.951-38.626 35.5-46.5 27.129-7.922 54.462-8.589 82-2a556.647 556.647 0 0 1 31 9.5c38.269 17.096 69.102 43.096 92.5 78 2.04 5.852.04 9.185-6 10-16.761-7.394-34.261-10.228-52.5-8.5-16.248 2.597-27.414 11.431-33.5 26.5a143.102 143.102 0 0 0-7 25c-1.333 4.092-4.167 6.425-8.5 7a154.203 154.203 0 0 0-13-5c-35.03-13.381-61.53-3.715-79.5 29-3.936 5.891-9.103 7.391-15.5 4.5-21.056-23.515-46.056-28.682-75-15.5 9.287 16.689 16.12 34.356 20.5 53 4.214 3.882 7.214 8.548 9 14 2.7 14.856 1.534 29.356-3.5 43.5a38.307 38.307 0 0 1 3.5 11.5 347.134 347.134 0 0 1 15.5 8.5 25.14 25.14 0 0 1 4 4.5 16.485 16.485 0 0 1 2 5c-.862 2.01-1.362 4.01-1.5 6a71.337 71.337 0 0 0 18.5 8 214.1 214.1 0 0 1 14-10.5c6.648-1.38 12.481.12 17.5 4.5 2.101 3.951 1.934 7.784-.5 11.5 7.226 1.594 14.56 1.928 22 1 2.642-5.64 6.642-9.973 12-13 7.326-3.474 12.659-1.641 16 5.5a131.205 131.205 0 0 1 12-6.5 92.626 92.626 0 0 1 3.5-16.5c1.845-2.683 4.345-4.35 7.5-5 2.673 1.259 5.339 2.092 8 2.5a211.683 211.683 0 0 0 18.5-31.5c4.032-5.576 8.865-6.409 14.5-2.5 11.378 18.941 15.544 39.441 12.5 61.5-3.374 21.744-12.374 40.744-27 57-10.291 11.477-22.125 20.81-35.5 28-38.15 21.619-79.15 30.786-123 27.5 1.134-1.016.801-1.683-1-2 1.284-1.297 1.117-2.464-.5-3.5-1.885 2.303-4.385 3.47-7.5 3.5l6 1c-3.856.177-7.523.677-11 1.5a337.033 337.033 0 0 1-39-8 1011.856 1011.856 0 0 1 4 19.5 1334.448 1334.448 0 0 1 115 9 90.1 90.1 0 0 1 18 5c1.26 1.814 1.26 3.647 0 5.5a113.545 113.545 0 0 1-32 8.5 2465.418 2465.418 0 0 1-208 12.5c-67.009-.6-134.176-1.6-201.5-3-5.677.001-11.177.334-16.5 1-5.195.321-10.195-.013-15-1a84.902 84.902 0 0 0 13-.5 2951.893 2951.893 0 0 1-84-4.5c-2.855.003-5.522.336-8 1a634.855 634.855 0 0 1-67-7.5 74.572 74.572 0 0 1-22.5-7.5c.017-3.985 2.183-6.152 6.5-6.5a207.396 207.396 0 0 1 25-5 926.257 926.257 0 0 1 82-6.5c4.29-13.795 12.29-24.962 24-33.5 5.734-3.196 11.4-6.363 17-9.5-13.008-20.026-20.008-42.026-21-66-10.417 6.296-21.417 7.463-33 3.5-24.26-11.15-33.926-29.983-29-56.5 2.725-12.65 7.892-24.316 15.5-35l1-15c2.07-14.397 10.07-23.397 24-27a682.95 682.95 0 0 1 16-31l1-11 11-17c8.545-12.879 19.379-23.379 32.5-31.5a1556.667 1556.667 0 0 1-47-24c-50.884-31.89-85.718-76.39-104.5-133.5-17.224-60.737-15.057-120.737 6.5-180 9.165-21.174 20.498-41.007 34-59.5-18.689-45.49-15.523-89.323 9.5-131.5a45.255 45.255 0 0 1 8.5-7.5c4.652-1.193 8.819-.36 12.5 2.5a354.718 354.718 0 0 0 17 39c6.97 10.636 15.636 19.636 26 27C403.327 59.069 510.827 51.236 622.5 99a424.94 424.94 0 0 1 45.5 24.5c12.477-10.807 23.143-23.14 32-37a577.305 577.305 0 0 0 14-29c7.243-5.73 13.91-5.062 20 2 17.577 32.48 22.244 66.813 14 103a154.475 154.475 0 0 1-7.5 25Z" style="opacity: 1;" data-index="25"></path>
  <path fill="#2a2a49" d="M842.5 836.5a174.082 174.082 0 0 1-16 7.5c-1.867.711-3.367.211-4.5-1.5-.399.228-.565.562-.5 1-8.686-7.516-16.019-6.183-22 4a64.873 64.873 0 0 1-16 1 835.566 835.566 0 0 1-4.5-25 23.663 23.663 0 0 0-2.5-6c17.661.29 34.827-2.377 51.5-8 5.461 4.142 9.461 9.476 12 16a34.455 34.455 0 0 1 2.5 11Z" style="opacity:1" data-index="26"></path>
  <path fill="#3c3c5f" d="M319.5 786.5c9.575 15.1 20.575 29.266 33 42.5-12.033-.077-23.7-2.244-35-6.5l-1-8a299.602 299.602 0 0 1 3-28Z" style="opacity:1" data-index="27"></path>
  <path fill="#2a2949" d="M867.5 783.5c6.444 3.276 11.444 8.11 15 14.5a197.902 197.902 0 0 1-31 31.5c-2.777-8.89-7.11-16.89-13-24 10.845-5.853 20.512-13.187 29-22Z" style="opacity:1" data-index="28"></path>
  <path fill="#1f1f3b" d="M653.5 744.5c9.491-1.158 19.158-1.325 29-.5 10.106 5.36 15.273 13.86 15.5 25.5 2.379 21.212-4.455 38.712-20.5 52.5-11.145 6.579-22.811 8.079-35 4.5 13.632-1.78 23.132-9.113 28.5-22 7.804-17.776 8.471-35.776 2-54l-5.5-5.5a98.432 98.432 0 0 0-14-.5Z" style="opacity:1" data-index="29"></path>
  <path fill="#3c3c5f" d="M592.5 769.5c.597.235.93.735 1 1.5-6.412 13.796-6.578 27.63-.5 41.5a18.778 18.778 0 0 0 4.5 5.5c-19.003 3.434-38.003 3.267-57-.5 4.108-10.028 10.108-18.861 18-26.5 10.249-8.954 21.582-16.12 34-21.5Z" style="opacity:1" data-index="30"></path>
  <path fill="#3a3a5d" d="M550.5 778.5c-12.378 11.078-21.545 24.411-27.5 40a66.227 66.227 0 0 0-2.5 11 178.59 178.59 0 0 1-34 11c-2.98-3.482-2.646-6.482 1-9a163.52 163.52 0 0 0 1.5-15 3825.127 3825.127 0 0 1 53.5-51c2.044-.531 3.711-1.698 5-3.5a12.93 12.93 0 0 1 5-.5 446.684 446.684 0 0 1-2 17Z" style="opacity:1" data-index="31"></path>
  <path fill="#292949" d="M653.5 744.5a98.432 98.432 0 0 1 14 .5l5.5 5.5c6.471 18.224 5.804 36.224-2 54-5.368 12.887-14.868 20.22-28.5 22-6.888-.361-12.721-3.027-17.5-8 .025-2.42.691-4.753 2-7a183.182 183.182 0 0 0 1.5-22h-3a81.874 81.874 0 0 1-4.5 11c-2.919 5.525-7.419 7.358-13.5 5.5-4.704-4.883-6.204-10.717-4.5-17.5a174.575 174.575 0 0 1 5-14c.245-4.353.245-8.687 0-13 13.623-9.709 28.789-15.375 45.5-17ZM269.5 724.5c11.79-1.097 22.456 1.736 32 8.5a25.568 25.568 0 0 1 6.5 8.5c.667 6 .667 12 0 18a270.676 270.676 0 0 1-7 21c-3.887 7.312-9.387 8.812-16.5 4.5-2.261-2.772-3.761-5.938-4.5-9.5l-1-16c-4.072 3.703-5.905 8.37-5.5 14 .682 10.034 5.016 18.034 13 24-.972 2.136-2.639 3.303-5 3.5-5.726 1.104-11.06.104-16-3-12.258-11.163-16.758-24.996-13.5-41.5 2.5-12.681 8.334-23.347 17.5-32Z" style="opacity:1" data-index="32"></path>
  <path fill="#0c0f36" d="M512.5 693.5c2.357-.163 4.69.003 7 .5a18.453 18.453 0 0 1-6 .5c.167 15.337 0 30.67-.5 46a799.793 799.793 0 0 1-.5-40v-7Z" style="opacity:1" data-index="33"></path>
  <path fill="#2a2a4a" d="M672.5 707.5c5.344.316 10.678.816 16 1.5a32.005 32.005 0 0 1 7.5 5.5c1.149 7.282.315 14.282-2.5 21a61.197 61.197 0 0 0-19-5 162.017 162.017 0 0 0-2-23Z" style="opacity:1" data-index="34"></path>
  <path fill="#3c3c5f" d="M672.5 707.5a162.017 162.017 0 0 1 2 23c-16.965-.839-33.298 1.994-49 8.5a259.279 259.279 0 0 1-20 8.5 45.8 45.8 0 0 0-2.5-9 16.242 16.242 0 0 1 0-8c9.387-7.778 19.887-13.611 31.5-17.5a118.71 118.71 0 0 1 38-5.5Z" style="opacity:1" data-index="35"></path>
  <path fill="#2b2b4b" d="M297.5 695.5a103.043 103.043 0 0 1 14.5 8c.18 7.671-.154 15.338-1 23-5.663-5.523-12.163-9.523-19.5-12a312.663 312.663 0 0 1 7-17 43.836 43.836 0 0 1-1-2ZM551.5 674.5c4.835 11.673 13.002 20.339 24.5 26a209.975 209.975 0 0 1 13.5 27.5c-1.439 2.813-2.106 5.813-2 9a231.308 231.308 0 0 0 4 20.5c-15.225 4.112-28.891 11.112-41 21a446.684 446.684 0 0 0 2-17 12.93 12.93 0 0 0-5 .5c-1.289 1.802-2.956 2.969-5 3.5a25.657 25.657 0 0 1 6-6c7.878 3.318 14.045 1.318 18.5-6 2.168-5 1.502-9.667-2-14a22.162 22.162 0 0 0-6.5-4c-1.765-.961-3.765-1.295-6-1a388.76 388.76 0 0 0-1-60Z" style="opacity:1" data-index="36"></path>
  <path fill="#3b3b5e" d="M297.5 695.5c.304.65.637 1.317 1 2a312.663 312.663 0 0 0-7 17 156.029 156.029 0 0 0-23-2.5c1.291-6.883 4.291-12.883 9-18 6.815-.871 13.482-.371 20 1.5Z" style="opacity:1" data-index="37"></path>
  <path fill="#f7f7f8" d="M504.5 692.5h8v8a1143.353 1143.353 0 0 0-1.5 48l-31 29a544.417 544.417 0 0 0-.5 33 10.098 10.098 0 0 0 6-1.5 1125.885 1125.885 0 0 0 57.5-55.5c-1.853-11.983 3.313-17.983 15.5-18a22.162 22.162 0 0 1 6.5 4c3.502 4.333 4.168 9 2 14-4.455 7.318-10.622 9.318-18.5 6a25.657 25.657 0 0 0-6 6 3825.127 3825.127 0 0 0-53.5 51 163.52 163.52 0 0 1-1.5 15 11.637 11.637 0 0 0-5 2c1.89 9.23 4.223 18.23 7 27-.17 1.322.163 2.489 1 3.5a40.914 40.914 0 0 1-9 .5 80.53 80.53 0 0 0-3-15 87.925 87.925 0 0 0-2-9 52.56 52.56 0 0 0-1.5-7c-5.798-1.226-8.464-4.892-8-11a16.242 16.242 0 0 1 0-8c1.264-2.107 3.097-3.107 5.5-3a419.252 419.252 0 0 1 1.5-37 614.105 614.105 0 0 0 30-29c.5-17.664.667-35.33.5-53Z" style="opacity:1" data-index="38"></path>
  <path fill="#272845" d="M552.5 742.5c4.405-.423 7.405 1.41 9 5.5-1.644 5.826-4.977 6.993-10 3.5-1.436-3.268-1.103-6.268 1-9Z" style="opacity:1" data-index="39"></path>
  <path fill="#3c3d5f" d="M348.5 687.5a408.637 408.637 0 0 0-3 58 45.8 45.8 0 0 1-16-3l-1-7.5a1086.499 1086.499 0 0 1 3-48.5 77.772 77.772 0 0 1 17 1Z" style="opacity:1" data-index="40"></path>
  <path fill="#2a2b4a" d="M660.5 695.5c-1.659-5.965-3.326-11.965-5-18-.247-1.213-.914-1.88-2-2 7.646-3.983 13.312-9.983 17-18 6.741 12.213 10.408 25.213 11 39a116.697 116.697 0 0 0-21-1Z" style="opacity:1" data-index="41"></path>
  <path fill="#fde2b0" d="M508.5 670.5h4c2.619-.268 5.119.065 7.5 1 .5 6.992.666 13.992.5 21h-23c-.166-7.008 0-14.008.5-21 3.394-.956 6.894-1.289 10.5-1Z" style="opacity:1" data-index="42"></path>
  <path fill="#fafafa" d="M359.5 672.5c7.324 3.554 8.824 8.887 4.5 16-1.488 1.66-3.321 2.66-5.5 3a18.453 18.453 0 0 1-6-.5 19.552 19.552 0 0 0-4-3.5c-4.896-1.946-10.229-2.613-16-2-.202-2.45.131-4.783 1-7a64.873 64.873 0 0 0 16-1 185.977 185.977 0 0 0 2-3c2.413-1.551 5.079-2.217 8-2Z" style="opacity:1" data-index="43"></path>
  <path fill="#2b2b4b" d="M305.5 687.5a130.518 130.518 0 0 1 9-31.5c-.556-.383-.889-.883-1-1.5 3.947-.123 7.614-.123 11 0a315.865 315.865 0 0 0-9.5 39 161.846 161.846 0 0 0-9.5-6Z" style="opacity:1" data-index="44"></path>
  <path fill="#584983" d="M618.5 632.5a590.757 590.757 0 0 0 6 18.5c5.156 1.512 6.823-.154 5-5a84.902 84.902 0 0 1 13-.5l1 6h8c.819 2.805 1.319 5.805 1.5 9 .417 1.256 1.25 1.923 2.5 2-4.197 4.632-9.531 6.965-16 7-23.392-3.8-34.059-17.467-32-41 .79 1.109 1.29 2.442 1.5 4 1.195-2.53 3.028-4.53 5.5-6 .632 3.175 1.965 5.175 4 6Z" style="opacity:1" data-index="45"></path>
  <path fill="#3c3c5f" d="M313.5 654.5c.111.617.444 1.117 1 1.5a130.518 130.518 0 0 0-9 31.5c-4.426-1.048-8.426-2.882-12-5.5a966.704 966.704 0 0 0 12.5-26.5c2.381-.935 4.881-1.268 7.5-1Z" style="opacity:1" data-index="46"></path>
  <path fill="#393064" d="M655.5 662.5c-1.25-.077-2.083-.744-2.5-2-.181-3.195-.681-6.195-1.5-9a109.922 109.922 0 0 0-3.5-17c-.2-1.82-1.034-3.153-2.5-4-1.109-.79-2.442-1.29-4-1.5l5-1c-8.45-7.654-18.45-11.487-30-11.5 10.124-5.606 20.124-5.106 30 1.5 13.639 9.108 18.472 21.608 14.5 37.5-1.371 2.766-3.204 5.099-5.5 7Z" style="opacity:1" data-index="47"></path>
  <path fill="#f7f7f9" d="M645.5 630.5c1.466.847 2.3 2.18 2.5 4a109.922 109.922 0 0 1 3.5 17h-8l-1-6a84.902 84.902 0 0 0-13 .5c1.823 4.846.156 6.512-5 5a590.757 590.757 0 0 1-6-18.5c4.644-3.349 7.644-2.016 9 4a43.117 43.117 0 0 0 13 1v-7h5Z" style="opacity:1" data-index="48"></path>
  <path fill="#3b3b5e" d="M511.5 625.5a364.13 364.13 0 0 0-8 43.5c1.882.198 3.548.698 5 1.5-3.606-.289-7.106.044-10.5 1-.5 6.992-.666 13.992-.5 21h7c.167 17.67 0 35.336-.5 53a614.105 614.105 0 0 1-30 29 419.252 419.252 0 0 0-1.5 37c-2.403-.107-4.236.893-5.5 3a16.242 16.242 0 0 0 0 8c-.464 6.108 2.202 9.774 8 11a52.56 52.56 0 0 1 1.5 7c-3.69 1.659-7.69 2.493-12 2.5-26.96 1.542-53.293-1.625-79-9.5-11.895-6.375-22.228-14.875-31-25.5a613.609 613.609 0 0 0 60.5 10.5 2.428 2.428 0 0 0 .5-2 36.354 36.354 0 0 1 2 4.5c6 .667 12 .667 18 0a6.293 6.293 0 0 0 1-3 395.189 395.189 0 0 0-3-16c-6-.667-12-.667-18 0-.906 1.699-1.239 3.533-1 5.5a320.53 320.53 0 0 1-69-11.5c-9.376-13.334-14.21-28.167-14.5-44.5 23.962 7.024 48.462 11.024 73.5 12 1.137 15.581 9.47 22.081 25 19.5 14.474-6.082 18.307-16.248 11.5-30.5-11.49-12.16-22.656-11.993-33.5.5a254.283 254.283 0 0 1-52-5c-1.839-18.992-.839-37.826 3-56.5 2.179-.34 4.012-1.34 5.5-3 4.324-7.113 2.824-12.446-4.5-16 2.653-10.267 5.486-20.6 8.5-31 1.667-5.323 3.834-10.323 6.5-15 45.611.854 91.278.521 137-1Z" style="opacity: 1;" data-index="49"></path>
  <path fill="#fcfcfc" d="M415.5 816.5c.236-3.109-.097-6.109-1-9-.239-1.967.094-3.801 1-5.5 6-.667 12-.667 18 0a395.189 395.189 0 0 1 3 16 6.293 6.293 0 0 1-1 3c-6 .667-12 .667-18 0a36.354 36.354 0 0 0-2-4.5Z" style="opacity:1" data-index="50"></path>
  <path fill="#fce3af" d="M420.5 754.5c8.995-.837 13.161 3.163 12.5 12-2.451 5.589-6.617 7.422-12.5 5.5-4.569-2.541-6.069-6.375-4.5-11.5.979-2.468 2.479-4.468 4.5-6Z" style="opacity:1" data-index="51"></path>
  <path fill="#18172f" d="M399.5 632.5c20.336-.167 40.669 0 61 .5 12.418 5.32 17.751 14.82 16 28.5a301.136 301.136 0 0 1-4.5 47c-3.326 7.993-9.159 13.159-17.5 15.5a840.83 840.83 0 0 1-58 0c-13.638-2.647-20.304-10.981-20-25a4203.527 4203.527 0 0 1 5.5-45.5c2.079-10.237 7.912-17.237 17.5-21Z" style="opacity:1" data-index="52"></path>
  <path fill="#fbfbfc" d="M400.5 652.5c4.532-.431 8.865.069 13 1.5a234.002 234.002 0 0 0-2 16.5h29a132.596 132.596 0 0 1 1-18h12a2196.208 2196.208 0 0 0-5 51h-12l2-20h-28a122.16 122.16 0 0 0-1 20h-13a753.443 753.443 0 0 0 4-51Z" style="opacity:1" data-index="53"></path>
  <path fill="#3b3b5e" d="M551.5 620.5a164.918 164.918 0 0 0-4 27 164.854 164.854 0 0 0 4 27 388.76 388.76 0 0 1 1 60c2.235-.295 4.235.039 6 1-12.187.017-17.353 6.017-15.5 18a1125.885 1125.885 0 0 1-57.5 55.5 10.098 10.098 0 0 1-6 1.5c-.167-11.005 0-22.005.5-33l31-29c.169-16.172.669-32.172 1.5-48-.167 13.337 0 26.671.5 40 .5-15.33.667-30.663.5-46a18.453 18.453 0 0 0 6-.5 24.935 24.935 0 0 0-7-.5v-1h8c.166-7.008 0-14.008-.5-21-2.381-.935-4.881-1.268-7.5-1a309.911 309.911 0 0 1 9-45 590.626 590.626 0 0 0 30-5Z" style="opacity:1" data-index="54"></path>
  <path fill="#39395b" d="M351.5 674.5c-.641.982-1.307 1.982-2 3a64.873 64.873 0 0 1-16 1c4.796-27.059 14.129-52.393 28-76a37.143 37.143 0 0 0 8 2.5c1.68.347 2.68 1.347 3 3-10.928 20.95-17.928 43.117-21 66.5Z" style="opacity:1" data-index="55"></path>
  <path fill="#4b3e75" d="M616.5 616.5c11.55.013 21.55 3.846 30 11.5l-5 1c1.558.21 2.891.71 4 1.5h-5v7a43.117 43.117 0 0 1-13-1c-1.356-6.016-4.356-7.349-9-4-2.035-.825-3.368-2.825-4-6-2.472 1.47-4.305 3.47-5.5 6-.21-1.558-.71-2.891-1.5-4 1.468-5.137 4.468-9.137 9-12Z" style="opacity:1" data-index="56"></path>
  <path fill="#3b3b5e" d="M339.5 604.5c.876-.131 1.543.202 2 1a165.317 165.317 0 0 0-15 38c-4.723 1.493-9.39 1.327-14-.5-1.054-1.388-1.22-2.888-.5-4.5 7.196-13.019 16.363-24.352 27.5-34Z" style="opacity:1" data-index="57"></path>
  <path fill="#2b2b4b" d="M511.5 625.5a2635.799 2635.799 0 0 1-137 1 89.655 89.655 0 0 1 8-16l4-1a493.658 493.658 0 0 0 22 2.5c21.667.667 43.333.667 65 0a1767.864 1767.864 0 0 0 45-6.5 177.638 177.638 0 0 1-7 20ZM551.5 620.5a590.626 590.626 0 0 1-30 5 192.291 192.291 0 0 1 10-22.5 178.242 178.242 0 0 1 32-5c-4.949 7.069-8.949 14.569-12 22.5Z" style="opacity: 1;" data-index="58"></path>
  <path fill="#3b3b5e" d="M653.5 675.5c1.086.12 1.753.787 2 2 1.674 6.035 3.341 12.035 5 18-21.756 2.365-41.756 9.698-60 22-4.646-15.638-13.479-28.305-26.5-38-11.168-16.751-13.502-34.751-7-54 10.157-29.491 29.99-39.324 59.5-29.5a37.337 37.337 0 0 1 6 6c-32.657 3.362-43.157 20.529-31.5 51.5 11.855 21.016 29.355 28.349 52.5 22Z" style="opacity:1" data-index="59"></path>
  <path fill="#302a56" d="M758.5 533.5c1.66 6.408 2.493 13.075 2.5 20a422.673 422.673 0 0 1-3 77l-2 4c-14.037-15.46-31.537-21.626-52.5-18.5a88.732 88.732 0 0 0-22 5.5l-7-14a346.314 346.314 0 0 0 31-11.5c18.064-9.397 32.231-22.897 42.5-40.5a334.646 334.646 0 0 1 10.5-22ZM771.5 523.5c5.253-.665 10.086.335 14.5 3 27.085 19.585 48.251 44.252 63.5 74l-1 1c-21.9-7.353-42.566-4.853-62 7.5-6.21 4.542-11.376 10.042-15.5 16.5 3.489-31.969 3.322-63.969-.5-96 .073-2.09.406-4.09 1-6Z" style="opacity:1" data-index="60"></path>
  <path fill="#3b3b5d" d="M402.5 151.5c59.279-4.01 115.279 7.49 168 34.5 87.718 52.63 123.218 129.797 106.5 231.5-13.858 58.91-47.691 102.077-101.5 129.5-61.559 28.975-126.225 39.642-194 32-32.778-3.482-63.778-12.815-93-28a292.779 292.779 0 0 1-19-13c73.57 33.936 150.236 42.269 230 25 43.279-8.956 81.612-27.622 115-56 40.38-40.306 58.88-89.139 55.5-146.5-5.253-64.501-34.087-115.334-86.5-152.5-42.763-28.92-90.096-44.253-142-46-66.674-4.085-127.674 12.249-183 49-28.551 21.555-50.051 48.722-64.5 81.5 7.407-30.641 22.907-56.475 46.5-77.5 31.719-27.027 68.052-45.36 109-55a539.355 539.355 0 0 1 53-8.5Z" style="opacity:1" data-index="61"></path>
  <path fill="#01010c" d="M384.5 552.5a447.42 447.42 0 0 0 52 2c-8.971 1.151-21.304 1.318-37 .5-6.463-.211-11.463-1.044-15-2.5Z" style="opacity:1" data-index="62"></path>
  <path fill="#3a3160" d="M878.5 563.5c-7.383 9.429-13.216 19.763-17.5 31a242.963 242.963 0 0 0-14-26 1704.33 1704.33 0 0 0-30.5-38c9.97 1.377 19.637 4.544 29 9.5a487.096 487.096 0 0 1 25 16 59.403 59.403 0 0 1 8 7.5Z" style="opacity:1" data-index="63"></path>
  <path fill="#2b2b4b" d="M698.5 420.5c5.729 12.897 15.062 22.397 28 28.5 2.726.182 5.393.682 8 1.5-15.9 34.393-39.233 62.56-70 84.5-28.789 19.503-60.123 33.837-94 43-50.06 14.096-101.06 20.096-153 18a288.761 288.761 0 0 1-64-12c73.164 13.528 144.164 6.194 213-22 33.417-14.932 61.75-36.432 85-64.5 16.37-17.565 29.87-37.231 40.5-59a67.841 67.841 0 0 0 6.5-18Z" style="opacity:1" data-index="64"></path>
  <path fill="#302a56" d="M878.5 563.5a59.403 59.403 0 0 0-8-7.5 487.096 487.096 0 0 0-25-16c-9.363-4.956-19.03-8.123-29-9.5-4.39-5.091-8.056-10.757-11-17 37.346-5.717 72.679.783 106 19.5a188.131 188.131 0 0 1 22 14 196.542 196.542 0 0 0-32 3c-8.946 2.468-16.613 6.968-23 13.5Z" style="opacity:1" data-index="65"></path>
  <path fill="#fbe1b2" d="M789.5 501.5c6.752-.084 10.585 3.249 11.5 10 .956 4.072.456 7.905-1.5 11.5-16.687 5.65-22.854-.183-18.5-17.5a172.015 172.015 0 0 1 8.5-4Z" style="opacity:1" data-index="66"></path>
  <path fill="#f7edd6" d="M263.5 347.5a1311.23 1311.23 0 0 0 2.5 17c.826-1.905 1.993-2.239 3.5-1a8.905 8.905 0 0 1-3 4c1.897 1.168 2.064 2.835.5 5a30.485 30.485 0 0 0 0 11 7.293 7.293 0 0 0 2-3c1.895 1.935 1.562 3.602-1 5l-.5 6.5c.95 8.822 1.116 17.656.5 26.5a157.702 157.702 0 0 0-9 22c-3.91 17.671-1.41 34.337 7.5 50-10.036-14.861-13.203-31.194-9.5-49a188.751 188.751 0 0 1 10-24c-1.19-23.312-2.357-46.645-3.5-70Z" style="opacity:1" data-index="67"></path>
  <path fill="#04040c" d="M204.5 312.5c-7.187 27.58-9.521 55.58-7 84-.88-1.878-1.38-4.545-1.5-8a249.764 249.764 0 0 1 3-57c1.194-7.22 3.027-13.553 5.5-19Z" style="opacity:1" data-index="68"></path>
  <path fill="#323253" d="M764.5 322.5c9.159-1.322 15.993 2.011 20.5 10 5.639 10.795 8.139 22.295 7.5 34.5 1.051 19.295-3.449 37.128-13.5 53.5-15.197 15.021-27.197 12.687-36-7-7.313-22.692-7.313-45.359 0-68 4.323-10.485 11.49-18.151 21.5-23Z" style="opacity:1" data-index="69"></path>
  <path fill="#2c2c4c" d="M705.5 372.5v9h21c-.306-2.885.027-5.552 1-8-.648 17.406 2.519 34.073 9.5 50a58.317 58.317 0 0 0 7.5 10.5c-16.072 3.99-27.238-1.843-33.5-17.5-5.331-14.42-7.164-29.086-5.5-44Z" style="opacity:1" data-index="70"></path>
  <path fill="#18162f" d="M766.5 336.5c5.521-.155 9.688 2.179 12.5 7 4.848 7.833 6.682 16.333 5.5 25.5 1.328 16.677-3.338 31.344-14 44-6.085 2.763-11.252 1.596-15.5-3.5-10.242-21.481-9.908-42.814 1-64 3.103-3.614 6.603-6.614 10.5-9Z" style="opacity:1" data-index="71"></path>
  <path fill="#3a3261" d="M766.5 353.5c3.488.643 5.988 2.643 7.5 6 3.776 12.578 3.11 24.911-2 37-5.187 5.699-9.521 5.032-13-2-2.261-10.769-1.928-21.435 1-32 1.611-3.438 3.777-6.438 6.5-9Z" style="opacity:1" data-index="72"></path>
  <path fill="#3c3c5f" d="M727.5 373.5c-.973 2.448-1.306 5.115-1 8h-21v-9c.537-18.163 5.704-34.829 15.5-50 3.993-5.003 8.826-8.837 14.5-11.5 5.542-.913 10.875-.246 16 2a3.943 3.943 0 0 1 1 2c-16.355 15.851-24.689 35.351-25 58.5Z" style="opacity:1" data-index="73"></path>
  <path fill="#f7f7f7" d="M197.5 396.5c-2.521-28.42-.187-56.42 7-84 5.429-15.198 12.262-29.864 20.5-44 .654-1.196 1.154-1.196 1.5 0-11.304 23.346-17.471 48.012-18.5 74-4.412 61.051 11.922 115.718 49 164 8.274 9.28 17.441 17.447 27.5 24.5-4.46-1.392-8.793-3.392-13-6-31.666-21.685-53.5-50.851-65.5-87.5a451.656 451.656 0 0 1-8.5-41Z" style="opacity:1" data-index="74"></path>
  <path fill="#2a2a4a" d="M715.5 308.5c-2.874-25.278-9.207-49.612-19-73 13.092.37 22.592-5.297 28.5-17 .853-1.625 1.853-1.958 3-1 13.829 24.654 22.329 50.987 25.5 79-10.277-2.284-19.944-.784-29 4.5a98.521 98.521 0 0 0-9 7.5Z" style="opacity:1" data-index="75"></path>
  <path fill="#fee6c8" d="M500.5 233.5c47.463 1.944 82.963 23.611 106.5 65 18.187 34.444 25.187 71.111 21 110-2.1 30.798-11.1 59.131-27 85l9-9c.399.228.565.562.5 1-25.282 27.72-56.282 46.22-93 55.5-26.676 7.335-53.676 11.835-81 13.5a447.42 447.42 0 0 1-52-2c-27.19-4.006-53.19-12.172-78-24.5-17.017-8.657-30.35-21.157-40-37.5-8.91-15.663-11.41-32.329-7.5-50a157.702 157.702 0 0 1 9-22c.616-8.844.45-17.678-.5-26.5l.5-6.5c2.562-1.398 2.895-3.065 1-5a7.293 7.293 0 0 1-2 3 30.485 30.485 0 0 1 0-11c1.564-2.165 1.397-3.832-.5-5a8.905 8.905 0 0 0 3-4c-1.507-1.239-2.674-.905-3.5 1a1311.23 1311.23 0 0 1-2.5-17 102.028 102.028 0 0 1 6-34 898.483 898.483 0 0 0 89-41.5 252.541 252.541 0 0 0 18-11.5l1 1c-6.543 16.853-15.543 32.187-27 46 31.202-1.118 60.535-9.285 88-24.5 23.474-12.973 44.141-29.473 62-49.5Z" style="opacity:1" data-index="76"></path>
  <path fill="#17152a" d="M457.5 469.5c11.329-.016 16.829 5.651 16.5 17-.956 1.394-2.289 2.061-4 2-2.154-.752-4.32-.919-6.5-.5-19.852 14.643-41.185 17.309-64 8-3.868-2.162-5.368-5.328-4.5-9.5.739-1.074 1.739-1.741 3-2 20.799 9.423 40.466 7.423 59-6-.112-1.678-.612-3.345-1.5-5 .252-1.573.918-2.906 2-4Z" style="opacity:1" data-index="77"></path>
  <path fill="#16152a" d="M381.5 435.5c8.65-1.686 13.984 1.647 16 10-6.078-2.189-11.245-.856-15.5 4a84.635 84.635 0 0 0-4.5 7.5c-1.444.781-2.777.614-4-.5-2.629-9.067.037-16.067 8-21Z" style="opacity:1" data-index="78"></path>
  <path fill="#18172f" d="M323.5 435.5c-15.061-8.767-22.395-22.101-22-40 .73-20.754 9.73-35.588 27-44.5-10.426-2.653-19.259-.153-26.5 7.5-9.49 13.96-13.323 29.293-11.5 46-8.818-18.534-7.651-36.534 3.5-54 12.024-14.9 26.857-18.733 44.5-11.5 18.326 14.274 26.159 33.107 23.5 56.5-1.179 14.191-7.012 26.024-17.5 35.5-6.441 3.849-13.441 5.349-21 4.5ZM534.5 439.5c-13.305-5.565-21.139-15.565-23.5-30-3.053-20.698 3.447-37.531 19.5-50.5a81.58 81.58 0 0 1 11-5c-13.784-3.848-25.284-.348-34.5 10.5-7.617 11.9-11.784 24.9-12.5 39-7.863-21.39-2.863-40.223 15-56.5 15.209-12.057 31.543-13.724 49-5 19.623 14.499 27.79 33.999 24.5 58.5-2.609 20.596-13.775 33.763-33.5 39.5-5.084.778-10.084.611-15-.5Z" style="opacity:1" data-index="79"></path>
  <path fill="#f9f9f9" d="M537.5 370.5c9.302.134 13.469 4.8 12.5 14-5.335 6.134-11.001 6.468-17 1-2.539-6.246-1.039-11.246 4.5-15Z" style="opacity:1" data-index="80"></path>
  <path fill="#f9f9fa" d="M334.5 369.5c10.785.408 14.118 5.575 10 15.5-10.074 3.553-14.574.053-13.5-10.5a27.241 27.241 0 0 1 3.5-5Z" style="opacity:1" data-index="81"></path>
  <path fill="#fbfbfb" d="M534.5 439.5c-15.439 2.67-26.939-2.997-34.5-17-2.948-6.145-4.781-12.478-5.5-19 .716-14.1 4.883-27.1 12.5-39 9.216-10.848 20.716-14.348 34.5-10.5a81.58 81.58 0 0 0-11 5c-16.053 12.969-22.553 29.802-19.5 50.5 2.361 14.435 10.195 24.435 23.5 30Z" style="opacity:1" data-index="82"></path>
  <path fill="#f8f8f8" d="M323.5 435.5c-18.368-2.365-29.368-12.698-33-31-1.823-16.707 2.01-32.04 11.5-46 7.241-7.653 16.074-10.153 26.5-7.5-17.27 8.912-26.27 23.746-27 44.5-.395 17.899 6.939 31.233 22 40Z" style="opacity:1" data-index="83"></path>
  <path fill="#18162d" d="M525.5 276.5c14.111-2.435 26.277 1.232 36.5 11a59.043 59.043 0 0 1 5 9c.818 2.727.652 5.394-.5 8-18.44-9.888-38.106-13.888-59-12-.059-4.048 1.608-7.215 5-9.5 4.147-2.74 8.48-4.907 13-6.5Z" style="opacity:1" data-index="84"></path>
  <path fill="#fdfcfd" d="M337.5 206.5c11.022 2.381 13.522 8.381 7.5 18a297.857 297.857 0 0 1-21.5 20.5c-17.543 13.437-36.543 24.27-57 32.5-8.202 2.543-15.036.543-20.5-6-2.265-6.282-1.598-12.282 2-18 14.382-19.211 32.882-32.878 55.5-41 10.921-4.095 22.254-6.095 34-6Z" style="opacity:1" data-index="85"></path>
  <path fill="#423870" d="M690.5 179.5a225.857 225.857 0 0 0 31 14c-4.299 9.092-9.966 17.258-17 24.5-7.514 2.116-14.847 1.449-22-2-7.597-3.285-14.264-7.785-20-13.5a363.165 363.165 0 0 0 28-23Z" style="opacity:1" data-index="86"></path>
  <path fill="#f0d0b3" d="M610.5 485.5c.065-.438-.101-.772-.5-1l-9 9c15.9-25.869 24.9-54.202 27-85 4.187-38.889-2.813-75.556-21-110-23.537-41.389-59.037-63.056-106.5-65a346.72 346.72 0 0 1 26.5-34c36.342 14.182 66.342 36.848 90 68 31.804 44.794 41.471 94.127 29 148-5.802 26.606-17.635 49.939-35.5 70Z" style="opacity:1" data-index="87"></path>
  <path fill="#574682" d="M378.5 283.5c8.118-14.686 13.451-30.352 16-47a1483.75 1483.75 0 0 1-91 49.5 291 291 0 0 1-38 14.5c-1.038-6.956-.371-13.789 2-20.5-.028-1.07-.361-1.903-1-2.5 20.457-8.23 39.457-19.063 57-32.5a297.857 297.857 0 0 0 21.5-20.5c6.022-9.619 3.522-15.619-7.5-18 14.903-7.128 30.736-10.461 47.5-10 12.449-.31 24.283 2.19 35.5 7.5 5.541 3.822 7.374 8.989 5.5 15.5a63.052 63.052 0 0 1-7 17c-11.495 17.333-24.995 33-40.5 47Z" style="opacity:1" data-index="88"></path>
  <path fill="#60528f" d="M690.5 179.5a363.165 363.165 0 0 1-28 23c-12.27-9.11-19.27-21.277-21-36.5-.168-3.381.499-6.547 2-9.5l18-11a558.963 558.963 0 0 0 16.5 23 202.038 202.038 0 0 1 12.5 11Z" style="opacity:1" data-index="89"></path>
  <path fill="#362e62" d="M378.5 283.5c15.505-14 29.005-29.667 40.5-47a63.052 63.052 0 0 0 7-17c1.874-6.511.041-11.678-5.5-15.5-11.217-5.31-23.051-7.81-35.5-7.5-16.764-.461-32.597 2.872-47.5 10-11.746-.095-23.079 1.905-34 6 2.393-3.902 5.393-7.402 9-10.5 26.833-14.211 55.499-22.211 86-24 39.053-2.809 77.053 2.191 114 15 .457.414.791.914 1 1.5-33.544 54.019-81.544 87.519-144 100.5 2.482-4.307 5.482-8.14 9-11.5Z" style="opacity:1" data-index="90"></path>
  <path fill="#575b80" d="M337.5 120.5c-26.287 16.013-50.787 35.346-73.5 58l-9.5 11.5c-1.956 1.612-3.956 1.778-6 .5 9.736-12.572 20.736-24.072 33-34.5a340.324 340.324 0 0 1 56-35.5Z" style="opacity:1" data-index="91"></path>
  <path fill="#41376f" d="M718.5 130.5c5.196 3.766 10.863 6.766 17 9-1.254 15.696-4.754 31.03-10.5 46a3.943 3.943 0 0 1-2 1c-10.008-3.253-19.175-7.92-27.5-14 9.306-13.006 16.973-27.006 23-42Z" style="opacity:1" data-index="92"></path>
  <path fill="#5f518f" d="M718.5 130.5c-6.027 14.994-13.694 28.994-23 42-11.996-7.497-20.996-17.664-27-30.5a226.251 226.251 0 0 0 29-27.5 121.002 121.002 0 0 0 21 16Z" style="opacity:1" data-index="93"></path>
  <path fill="#5e508e" d="M251.5 120.5c5.36 8.374 12.36 15.707 21 22a305.345 305.345 0 0 0-35 37c-6.123-14.024-8.956-28.691-8.5-44a274.123 274.123 0 0 1 22.5-15Z" style="opacity:1" data-index="94"></path>
  <path fill="#453a75" d="M272.5 142.5c-8.64-6.293-15.64-13.626-21-22a153.56 153.56 0 0 0 12-9.5c.949-.617 1.782-.451 2.5.5a105.356 105.356 0 0 0 18.5 20 9586.413 9586.413 0 0 1-12 11Z" style="opacity:1" data-index="95"></path>
  <path fill="#423870" d="M728.5 80.5c6.297 16.277 8.963 33.277 8 51a59.847 59.847 0 0 1-16-7c1.149-.291 1.816-1.124 2-2.5a184.958 184.958 0 0 0 6-41.5Z" style="opacity:1" data-index="96"></path>
  <path fill="#5f528f" d="M728.5 80.5a184.958 184.958 0 0 1-6 41.5c-.184 1.376-.851 2.209-2 2.5-6.923-4.255-12.923-9.588-18-16 8.618-10.893 15.451-22.893 20.5-36 .893-1.211 1.726-1.211 2.5 0 1.576 2.48 2.576 5.146 3 8Z" style="opacity:1" data-index="97"></path>
  <path fill="#5e518e" d="M245.5 71.5c.996-.086 1.829.248 2.5 1a169.84 169.84 0 0 0 12.5 32 252.354 252.354 0 0 1-30 23c-.558-9.128.608-18.128 3.5-27a139.355 139.355 0 0 1 11.5-29Z" style="opacity:1" data-index="98"></path>
  <path fill="#3c3c5f" d="M696.5 235.5c9.793 23.388 16.126 47.722 19 73-10.907 13.857-18.073 29.524-21.5 47-3.178 22.044-1.678 43.711 4.5 65a67.841 67.841 0 0 1-6.5 18c-10.63 21.769-24.13 41.435-40.5 59 41.112-62.375 50.279-129.375 27.5-201-22.565-56.986-61.399-98.819-116.5-125.5-67.659-29.584-137.659-36.584-210-21-43.835 9.502-82.668 28.668-116.5 57.5 3.149-6.248 7.316-11.915 12.5-17 2.044 1.278 4.044 1.112 6-.5l9.5-11.5c22.713-22.654 47.213-41.987 73.5-58 73.743-36.97 150.409-44.136 230-21.5 28.134 8.402 54.467 20.569 79 36.5-17.201 8.408-23.701 22.074-19.5 41 9.642 30.307 29.809 49.807 60.5 58.5 2.982.498 5.982.665 9 .5Z" style="opacity:1" data-index="99"></path>
  <path fill="#2a2a4a" d="M749.5 848.5h-1c-2.269-6.64-6.936-9.473-14-8.5a27.241 27.241 0 0 0-5 3.5c-.31-1.238-.81-1.238-1.5 0-1.009 1.525-1.509 3.192-1.5 5-14.162-2.498-27.496-7.164-40-14 6.72-4.221 11.887-9.888 15.5-17 4.644-8.096 7.811-16.763 9.5-26 15.79 11.876 33.457 19.376 53 22.5 4.865 5.927 7.699 12.76 8.5 20.5.499 4.321.666 8.654.5 13-8.184-.326-16.184.008-24 1Z" style="opacity:1" data-index="100"></path>
  <path fill="#3c3c5e" d="M600.5 827.5h3a118.102 118.102 0 0 1 7.5 19 98.558 98.558 0 0 1-.5 23c-24.457 3.528-47.791.028-70-10.5-1.938-2.47-3.104-5.304-3.5-8.5a75.141 75.141 0 0 1-1-22c.674-1.078 1.674-1.745 3-2 20.43 3.589 40.93 3.923 61.5 1Z" style="opacity:1" data-index="101"></path>
  <path fill="#3c3c5f" d="M370.5 842.5a213.347 213.347 0 0 0 6.5 19c.497 2.646.664 5.313.5 8-16.691.907-32.691-1.927-48-8.5-5.494-8.994-8.828-18.494-10-28.5a185.245 185.245 0 0 0 46 6.5c1.346 1.669 3.013 2.836 5 3.5Z" style="opacity:1" data-index="102"></path>
  <path fill="#20203d" d="M686.5 834.5c12.504 6.836 25.838 11.502 40 14-.009-1.808.491-3.475 1.5-5 .69-1.238 1.19-1.238 1.5 0-5.148 11.038-1.815 17.704 10 20 3.693-.172 6.359-1.839 8-5a99.585 99.585 0 0 1 24-.5 189.313 189.313 0 0 1-7.5 20.5c-1.899 3.978-4.399 7.478-7.5 10.5-28.367 2.849-55.7-1.151-82-12-1.91-.408-2.91-1.575-3-3.5a104.814 104.814 0 0 0 7.5-34c2.099-2.297 4.599-3.964 7.5-5Z" style="opacity:1" data-index="103"></path>
  <path fill="#2a2b4a" d="M520.5 829.5a110.45 110.45 0 0 0 1 34 170.022 170.022 0 0 1-30 2c.098-2.053-.569-3.72-2-5a266.414 266.414 0 0 1-7-27 11.637 11.637 0 0 1 5-2c-3.646 2.518-3.98 5.518-1 9a178.59 178.59 0 0 0 34-11Z" style="opacity:1" data-index="104"></path>
  <path fill="#f3f3f5" d="M821.5 843.5c4.265 12.98-.402 19.48-14 19.5-2.702-1.012-5.035-2.512-7-4.5.086-.996-.248-1.829-1-2.5-16.997-.093-33.997.074-51 .5v-8h35a64.873 64.873 0 0 0 16-1c5.981-10.183 13.314-11.516 22-4Z" style="opacity:1" data-index="105"></path>
  <path fill="#292a49" d="M610.5 869.5a98.558 98.558 0 0 0 .5-23 118.102 118.102 0 0 0-7.5-19h-3c3.417-1.567 7.083-2.067 11-1.5 12.633 13.796 28.3 18.963 47 15.5.307 4.882-.526 9.549-2.5 14a21.827 21.827 0 0 1-4 5 159.214 159.214 0 0 1-41.5 9Z" style="opacity:1" data-index="106"></path>
  <path fill="#fbe2b1" d="M748.5 848.5v8c-.838.342-1.172 1.008-1 2-1.641 3.161-4.307 4.828-8 5-11.815-2.296-15.148-8.962-10-20a27.241 27.241 0 0 1 5-3.5c7.064-.973 11.731 1.86 14 8.5Z" style="opacity:1" data-index="107"></path>
  <path fill="#2c2d4d" d="M370.5 842.5a498.645 498.645 0 0 0 36 22c-3.372 1.93-7.039 3.096-11 3.5a94.985 94.985 0 0 1-18 1.5 32.462 32.462 0 0 0-.5-8 213.347 213.347 0 0 1-6.5-19Z" style="opacity:1" data-index="108"></path>
  <path fill="#2b2b4b" d="M385.5 833.5c25.707 7.875 52.04 11.042 79 9.5 4.31-.007 8.31-.841 12-2.5a87.925 87.925 0 0 1 2 9c-.696 4.642-.029 9.309 2 14-29.88-.304-57.88-7.804-84-22.5a138.461 138.461 0 0 1-11-7.5Z" style="opacity:1" data-index="109"></path>
  <path fill="#1d1d30" d="M810.5 845.5c5.169 1.814 6.503 4.981 4 9.5-4.309 2.086-7.309.752-9-4 1.179-2.343 2.846-4.176 5-5.5Z" style="opacity:1" data-index="110"></path>
  <path fill="#21213e" d="M842.5 836.5a59.522 59.522 0 0 1-.5 24c-21.527 14.857-45.361 24.191-71.5 28l-2-1c5.917-9.168 9.583-19.168 11-30a116.8 116.8 0 0 1 21 1c1.965 1.988 4.298 3.488 7 4.5 13.598-.02 18.265-6.52 14-19.5-.065-.438.101-.772.5-1 1.133 1.711 2.633 2.211 4.5 1.5a174.082 174.082 0 0 0 16-7.5Z" style="opacity:1" data-index="111"></path>
  <path fill="#2c2c4c" d="M601.5 888.5h8v-10a358.73 358.73 0 0 0 41-8l2 1c-1.996 8.49-6.996 14.323-15 17.5-12.174.826-24.174.66-36-.5Z" style="opacity:1" data-index="112"></path>
  <path fill="#3c3c5f" d="M609.5 878.5v10h-8a311.949 311.949 0 0 1-44-3.5c-2.534-.516-4.7-1.683-6.5-3.5a168.466 168.466 0 0 0-6.5-10.5c20.907 7.82 42.574 10.32 65 7.5Z" style="opacity:1" data-index="113"></path>
  <path fill="#fdfdfd" d="M460.5 881.5c23.545 2.599 47.045 2.599 70.5 0l8.5 8.5a478.42 478.42 0 0 0-7 5.5c-4.333 2.333-7.667 5.667-10 10-1.997 2.013-3.664 4.346-5 7a961.621 961.621 0 0 1-62 1h-5a205.379 205.379 0 0 0-5-28 17.303 17.303 0 0 1 4-4.5 32.994 32.994 0 0 1 11 .5Z" style="opacity:1" data-index="114"></path>
  <path fill="#11101a" d="M460.5 881.5c1.293-.658 2.793-.992 4.5-1a339.138 339.138 0 0 0 67.5.5c3.262 2.754 5.929 5.921 8 9.5-1.677 3.176-4.344 4.842-8 5a478.42 478.42 0 0 1 7-5.5l-8.5-8.5c-23.455 2.599-46.955 2.599-70.5 0Z" style="opacity:1" data-index="115"></path>
  <path fill="#2d2d4d" d="M405.5 872.5h3c.135 5.681.468 11.348 1 17a102.148 102.148 0 0 1-28-2.5 1271.913 1271.913 0 0 0-39-10 8.905 8.905 0 0 1-4-3c19.854 4.102 39.854 4.435 60 1a49.83 49.83 0 0 0 7-2.5Z" style="opacity:1" data-index="116"></path>
  <path fill="#292949" d="M333.5 889.5c13.933-.186 26.599 3.648 38 11.5 8.275 7.714 12.275 17.214 12 28.5-20.003.167-40.003 0-60-.5-1.076-1.726-1.243-3.559-.5-5.5a124.582 124.582 0 0 1 11-18 8.43 8.43 0 0 0 .5-4c-4.857.008-9.19 1.508-13 4.5-7.394 5.969-12.394 13.469-15 22.5a43.503 43.503 0 0 1-15-2c3.723-16.229 13.39-27.395 29-33.5 4.36-1.583 8.694-2.75 13-3.5ZM562.5 898.5a137.24 137.24 0 0 1 39 3.5c17.341 4.492 27.341 15.325 30 32.5a282.307 282.307 0 0 1-35 3c.29-6.367.957-12.7 2-19-.051-1.6-.384-3.1-1-4.5-3.276 1.237-6.109 3.403-8.5 6.5a401.382 401.382 0 0 1-9.5 16.5c-8.333.667-16.667.667-25 0a3.647 3.647 0 0 1-1-1.5 137.17 137.17 0 0 0 3-21 8.43 8.43 0 0 0-4 .5 243.5 243.5 0 0 0-18 19 40.914 40.914 0 0 1-9 .5c3.851-20.852 16.184-32.852 37-36Z" style="opacity:1" data-index="117"></path>
  <path fill="#11101a" d="M845.5 879.5c-8.333 5.837-17.333 10.67-27 14.5-35.554 13.528-72.221 18.028-110 13.5 3.477-.823 7.144-1.323 11-1.5l-6-1c3.115-.03 5.615-1.197 7.5-3.5 1.617 1.036 1.784 2.203.5 3.5 1.801.317 2.134.984 1 2 43.85 3.286 84.85-5.881 123-27.5Z" style="opacity:1" data-index="118"></path>
  <path fill="#05050d" d="M522.5 905.5a26.378 26.378 0 0 1-4 8c-21.163 1.328-42.163 1.328-63 0 20.677.333 41.344 0 62-1 1.336-2.654 3.003-4.987 5-7Z" style="opacity:1" data-index="119"></path>
  <path fill="#14141c" d="M254.5 952.5c2.478-.664 5.145-.997 8-1a2951.893 2951.893 0 0 0 84 4.5 84.902 84.902 0 0 1-13 .5 1286.377 1286.377 0 0 1-79-4Z" style="opacity:1" data-index="120"></path>
  <path fill="#202027" d="M348.5 957.5c5.323-.666 10.823-.999 16.5-1 67.324 1.4 134.491 2.4 201.5 3a3706.534 3706.534 0 0 1-218-2Z" style="opacity:1" data-index="121"></path>
</svg>